<?xml version="1.0" encoding="UTF-8" standalone="no"?>
<!-- Created with Inkscape (http://www.inkscape.org/) -->

<svg
   xmlns:dc="http://purl.org/dc/elements/1.1/"
   xmlns:cc="http://creativecommons.org/ns#"
   xmlns:rdf="http://www.w3.org/1999/02/22-rdf-syntax-ns#"
   xmlns:svg="http://www.w3.org/2000/svg"
   xmlns="http://www.w3.org/2000/svg"
   version="1.1"
   width="92.72"
   height="92.72"
   id="svg2">
  <defs
     id="defs4" />
  <metadata
     id="metadata7">
    <rdf:RDF>
      <cc:Work
         rdf:about="">
        <dc:format>image/svg+xml</dc:format>
        <dc:type
           rdf:resource="http://purl.org/dc/dcmitype/StillImage" />
        <dc:title></dc:title>
      </cc:Work>
    </rdf:RDF>
  </metadata>
  <g
     transform="translate(0,-959.64218)"
     id="layer1">
    <g
       transform="translate(46.363,1005.9992)"
       id="g2990"
       style="fill:#e5e5e5;fill-opacity:1">
      <path
         d="m 39.8265,-3.2071 0.5584,0.0174 0.5623,0.0701 0.5647,0.1057 0.5661,0.1356 0.5672,0.1623 0.5677,0.1868 0.5678,0.2099 0.5675,0.2319 0.5669,0.253 0.5659,0.2735 0.5645,0.2934 0.0131,0.6337 L 46.063,0 46.0586,0.6338 46.0455,1.2675 45.481,1.5609 44.9151,1.8344 44.3482,2.0874 43.7807,2.3193 43.2129,2.5292 42.6452,2.716 42.078,2.8783 41.5119,3.0139 40.9472,3.1196 40.3849,3.1897 39.8265,3.2071 38.8506,3.1285 38.7591,4.1093 38.6429,5.0874 38.502,6.0623 l -0.1655,0.971 0.963,0.1767 0.5349,0.1613 0.525,0.2133 0.518,0.2483 0.5118,0.2775 0.5058,0.3035 0.5,0.3274 0.4942,0.3497 0.4881,0.3709 0.4821,0.3911 0.4758,0.4106 0.4695,0.4295 -0.1514,0.6155 -0.1599,0.6134 -0.1682,0.6111 -0.1767,0.6087 -0.6212,0.1372 -0.6174,0.1177 -0.6131,0.0977 -0.6082,0.0771 -0.6028,0.0558 -0.5967,0.0335 -0.5898,0.01 -0.582,-0.0156 -0.5727,-0.044 -0.5613,-0.0778 -0.5439,-0.1277 -0.9223,-0.3285 -0.3422,0.9237 -0.3654,0.9147 -0.3884,0.9052 -0.4112,0.8951 0.8844,0.4199 0.4749,0.2943 0.452,0.3418 0.4361,0.3739 0.4225,0.4006 0.41,0.4241 0.3982,0.4456 0.3868,0.4657 0.3756,0.4846 0.3644,0.5025 0.3533,0.5198 0.3423,0.5363 -0.3055,0.5554 -0.3132,0.5511 -0.3207,0.5467 -0.3282,0.5423 -0.6356,-0.0282 -0.6268,-0.0462 -0.6174,-0.0643 -0.6075,-0.0829 -0.5966,-0.1021 -0.5851,-0.1221 -0.5723,-0.143 -0.5581,-0.1657 -0.5419,-0.1907 -0.522,-0.2205 -0.4923,-0.2641 -0.8059,-0.556 -0.5695,0.8036 -0.5898,0.789 -0.6094,0.7738 -0.6288,0.7582 0.7456,0.6345 0.3825,0.4072 0.3481,0.4472 0.3245,0.474 0.3044,0.4962 0.2863,0.5158 0.2693,0.5335 0.2531,0.5499 0.2373,0.5653 0.2219,0.5798 0.2068,0.5935 0.1918,0.6066 -0.4388,0.4574 -0.4451,0.4513 -0.4513,0.4451 -0.4574,0.4388 -0.6066,-0.1918 -0.5935,-0.2068 -0.5798,-0.2219 -0.5653,-0.2373 -0.5499,-0.2531 -0.5335,-0.2693 -0.5158,-0.2863 -0.4962,-0.3044 -0.474,-0.3245 -0.4472,-0.3481 -0.4072,-0.3825 -0.6345,-0.7456 -0.7582,0.6288 -0.7738,0.6094 -0.789,0.5898 -0.8036,0.5695 0.556,0.8059 0.2641,0.4923 0.2205,0.522 0.1907,0.5419 0.1657,0.5581 0.143,0.5723 0.1221,0.5851 0.1021,0.5966 0.0829,0.6075 0.0643,0.6174 0.0462,0.6268 0.0282,0.6356 -0.5423,0.3282 -0.5467,0.3207 -0.5511,0.3132 -0.5554,0.3055 -0.5363,-0.3423 -0.5198,-0.3533 -0.5025,-0.3644 -0.4846,-0.3756 -0.4657,-0.3868 -0.4456,-0.3982 -0.4241,-0.41 -0.4006,-0.4225 -0.3739,-0.4361 -0.3418,-0.452 -0.2943,-0.4749 -0.4199,-0.8844 -0.8951,0.4112 -0.9052,0.3884 -0.9147,0.3654 -0.9237,0.3422 0.3285,0.9223 0.1277,0.5439 0.0778,0.5613 0.044,0.5727 0.0156,0.582 -0.01,0.5898 -0.0335,0.5967 -0.0558,0.6028 -0.0771,0.6082 -0.0977,0.6131 -0.1177,0.6174 -0.1372,0.6212 -0.6087,0.1767 -0.6111,0.1682 -0.6134,0.1599 -0.6155,0.1514 L 10.2636,44.3352 9.853,43.8594 9.4619,43.3773 9.091,42.8892 8.7413,42.395 8.4139,41.895 8.1104,41.3892 7.8329,40.8774 7.5846,40.3594 7.3713,39.8344 7.21,39.2995 7.0333,38.3365 6.0623,38.502 5.0874,38.6429 4.1093,38.7591 3.1285,38.8506 3.2071,39.8265 3.1897,40.3849 3.1196,40.9472 3.0139,41.5119 2.8783,42.078 2.716,42.6452 2.5292,43.2129 2.3193,43.7807 2.0874,44.3482 1.8344,44.9151 1.5609,45.481 1.2675,46.0455 0.6338,46.0586 0,46.063 -0.6338,46.0586 -1.2675,46.0455 -1.5609,45.481 -1.8344,44.9151 -2.0874,44.3482 -2.3193,43.7807 -2.5292,43.2129 -2.716,42.6452 -2.8783,42.078 l -0.1356,-0.5661 -0.1057,-0.5647 -0.0701,-0.5623 -0.0174,-0.5584 0.0786,-0.9759 -0.9808,-0.0915 -0.9781,-0.1162 -0.9749,-0.1409 -0.971,-0.1655 -0.1767,0.963 -0.1613,0.5349 -0.2133,0.525 -0.2483,0.518 -0.2775,0.5118 -0.3035,0.5058 -0.3274,0.5 -0.3497,0.4942 -0.3709,0.4881 -0.3911,0.4821 -0.4106,0.4758 -0.4295,0.4695 -0.6155,-0.1514 -0.6134,-0.1599 -0.6111,-0.1682 -0.6087,-0.1767 -0.1372,-0.6212 -0.1177,-0.6174 -0.0977,-0.6131 -0.0771,-0.6082 -0.0558,-0.6028 -0.0335,-0.5967 -0.01,-0.5898 0.0156,-0.582 0.044,-0.5727 0.0778,-0.5613 0.1277,-0.5439 0.3285,-0.9223 -0.9237,-0.3422 -0.9147,-0.3654 -0.9052,-0.3884 -0.8951,-0.4112 -0.4199,0.8844 -0.2943,0.4749 -0.3418,0.452 -0.3739,0.4361 -0.4006,0.4225 -0.4241,0.41 -0.4456,0.3982 -0.4657,0.3868 -0.4846,0.3756 -0.5025,0.3644 -0.5198,0.3533 -0.5363,0.3423 -0.5554,-0.3055 -0.5511,-0.3132 -0.5467,-0.3207 -0.5423,-0.3282 0.0282,-0.6356 0.0462,-0.6268 0.0643,-0.6174 0.0829,-0.6075 0.1021,-0.5966 0.1221,-0.5851 0.143,-0.5723 0.1657,-0.5581 0.1907,-0.5419 0.2205,-0.522 0.2641,-0.4923 0.556,-0.8059 -0.8036,-0.5695 -0.789,-0.5898 -0.7738,-0.6094 -0.7582,-0.6288 -0.6345,0.7456 -0.4072,0.3825 -0.4472,0.3481 -0.474,0.3245 -0.4962,0.3044 -0.5158,0.2863 -0.5335,0.2693 -0.5499,0.2531 -0.5653,0.2373 -0.5798,0.2219 -0.5935,0.2068 -0.6066,0.1918 -0.4574,-0.4388 -0.4513,-0.4451 -0.4451,-0.4513 -0.4388,-0.4574 0.1918,-0.6066 0.2068,-0.5935 0.2219,-0.5798 0.2373,-0.5653 0.2531,-0.5499 0.2693,-0.5335 0.2863,-0.5158 0.3044,-0.4962 0.3245,-0.474 0.3481,-0.4472 0.3825,-0.4072 0.7456,-0.6345 -0.6288,-0.7582 -0.6094,-0.7738 -0.5898,-0.789 -0.5695,-0.8036 -0.8059,0.556 -0.4923,0.2641 -0.522,0.2205 -0.5419,0.1907 -0.5581,0.1657 -0.5723,0.143 -0.5851,0.1221 -0.5966,0.1021 -0.6075,0.0829 -0.6174,0.0643 -0.6268,0.0462 -0.6356,0.0282 -0.3282,-0.5423 -0.3207,-0.5467 -0.3132,-0.5511 -0.3055,-0.5554 0.3423,-0.5363 0.3533,-0.5198 0.3644,-0.5025 0.3756,-0.4846 0.3868,-0.4657 0.3982,-0.4456 0.41,-0.4241 0.4225,-0.4006 0.4361,-0.3739 0.452,-0.3418 0.4749,-0.2943 0.8844,-0.4199 -0.4112,-0.8951 -0.3884,-0.9052 -0.3654,-0.9147 -0.3422,-0.9237 -0.9223,0.3285 -0.5439,0.1277 -0.5613,0.0778 -0.5727,0.044 -0.582,0.0156 -0.5898,-0.01 -0.5967,-0.0335 -0.6028,-0.0558 -0.6082,-0.0771 -0.6131,-0.0977 -0.6174,-0.1177 -0.6212,-0.1372 -0.1767,-0.6087 -0.1682,-0.6111 -0.1599,-0.6134 -0.1514,-0.6155 0.4695,-0.4295 0.4758,-0.4106 0.4821,-0.3911 0.4881,-0.3709 0.4942,-0.3497 0.5,-0.3274 0.5058,-0.3035 0.5118,-0.2775 0.518,-0.2483 0.525,-0.2133 0.5349,-0.1613 0.963,-0.1767 -0.1655,-0.971 -0.1409,-0.9749 -0.1162,-0.9781 -0.0915,-0.9808 -0.9759,0.0786 L -40.3849,3.1897 -40.9472,3.1196 -41.5119,3.0139 -42.078,2.8783 -42.6452,2.716 -43.2129,2.5292 -43.7807,2.3193 -44.3482,2.0874 -44.9151,1.8344 -45.481,1.5609 -46.0455,1.2675 -46.0586,0.6338 -46.063,0 l 0.0044,-0.6338 0.0131,-0.6337 0.5645,-0.2934 0.5659,-0.2735 0.5669,-0.253 0.5675,-0.2319 0.5678,-0.2099 0.5677,-0.1868 0.5672,-0.1623 0.5661,-0.1356 0.5647,-0.1057 0.5623,-0.0701 0.5584,-0.0174 0.9759,0.0786 0.0915,-0.9808 0.1162,-0.9781 0.1409,-0.9749 0.1655,-0.971 -0.963,-0.1767 -0.5349,-0.1613 -0.525,-0.2133 -0.518,-0.2483 -0.5118,-0.2775 -0.5058,-0.3035 -0.5,-0.3274 -0.4942,-0.3497 -0.4881,-0.3709 -0.4821,-0.3911 -0.4758,-0.4106 -0.4695,-0.4295 0.1514,-0.6155 0.1599,-0.6134 0.1682,-0.6111 0.1767,-0.6087 0.6212,-0.1372 0.6174,-0.1177 0.6131,-0.0977 0.6082,-0.0771 0.6028,-0.0558 0.5967,-0.0335 0.5898,-0.01 0.582,0.0156 0.5727,0.044 0.5613,0.0778 0.5439,0.1277 0.9223,0.3285 0.3422,-0.9237 0.3654,-0.9147 0.3884,-0.9052 0.4112,-0.8951 -0.8844,-0.4199 -0.4749,-0.2943 -0.452,-0.3418 -0.4361,-0.3739 -0.4225,-0.4006 -0.41,-0.4241 -0.3982,-0.4456 -0.3868,-0.4657 -0.3756,-0.4846 -0.3644,-0.5025 -0.3533,-0.5198 -0.3423,-0.5363 0.3055,-0.5554 0.3132,-0.5511 0.3207,-0.5467 0.3282,-0.5423 0.6356,0.0282 0.6268,0.0462 0.6174,0.0643 0.6075,0.0829 0.5966,0.1021 0.5851,0.1221 0.5723,0.143 0.5581,0.1657 0.5419,0.1907 0.522,0.2205 0.4923,0.2641 0.8059,0.556 0.5695,-0.8036 0.5898,-0.789 0.6094,-0.7738 0.6288,-0.7582 -0.7456,-0.6345 -0.3825,-0.4072 -0.3481,-0.4472 -0.3245,-0.474 -0.3044,-0.4962 -0.2863,-0.5158 -0.2693,-0.5335 -0.2531,-0.5499 -0.2373,-0.5653 -0.2219,-0.5798 -0.2068,-0.5935 -0.1918,-0.6066 0.4388,-0.4574 0.4451,-0.4513 0.4513,-0.4451 0.4574,-0.4388 0.6066,0.1918 0.5935,0.2068 0.5798,0.2219 0.5653,0.2373 0.5499,0.2531 0.5335,0.2693 0.5158,0.2863 0.4962,0.3044 0.474,0.3245 0.4472,0.3481 0.4072,0.3825 0.6345,0.7456 0.7582,-0.6288 0.7738,-0.6094 0.789,-0.5898 0.8036,-0.5695 -0.556,-0.8059 -0.2641,-0.4923 -0.2205,-0.522 -0.1907,-0.5419 -0.1657,-0.5581 -0.143,-0.5723 -0.1221,-0.5851 -0.1021,-0.5966 -0.0829,-0.6075 -0.0643,-0.6174 -0.0462,-0.6268 -0.0282,-0.6356 0.5423,-0.3282 0.5467,-0.3207 0.5511,-0.3132 0.5554,-0.3055 0.5363,0.3423 0.5198,0.3533 0.5025,0.3644 0.4846,0.3756 0.4657,0.3868 0.4456,0.3982 0.4241,0.41 0.4006,0.4225 0.3739,0.4361 0.3418,0.452 0.2943,0.4749 0.4199,0.8844 0.8951,-0.4112 0.9052,-0.3884 0.9147,-0.3654 0.9237,-0.3422 -0.3285,-0.9223 -0.1277,-0.5439 -0.0778,-0.5613 -0.044,-0.5727 -0.0156,-0.582 0.01,-0.5898 0.0335,-0.5967 0.0558,-0.6028 0.0771,-0.6082 0.0977,-0.6131 0.1177,-0.6174 0.1372,-0.6212 0.6087,-0.1767 0.6111,-0.1682 0.6134,-0.1599 0.6155,-0.1514 0.4295,0.4695 0.4106,0.4758 0.3911,0.4821 0.3709,0.4881 0.3497,0.4942 0.3274,0.5 0.3035,0.5058 0.2775,0.5118 0.2483,0.518 0.2133,0.525 0.1613,0.5349 0.1767,0.963 0.971,-0.1655 0.9749,-0.1409 0.9781,-0.1162 0.9808,-0.0915 -0.0786,-0.9759 0.0174,-0.5584 0.0701,-0.5623 0.1057,-0.5647 0.1356,-0.5661 0.1623,-0.5672 0.1868,-0.5677 0.2099,-0.5678 0.2319,-0.5675 0.253,-0.5669 0.2735,-0.5659 0.2934,-0.5645 0.6337,-0.0131 L 0,-46.063 l 0.6338,0.0044 0.6337,0.0131 0.2934,0.5645 0.2735,0.5659 0.253,0.5669 0.2319,0.5675 0.2099,0.5678 0.1868,0.5677 0.1623,0.5672 0.1356,0.5661 0.1057,0.5647 0.0701,0.5623 0.0174,0.5584 -0.0786,0.9759 0.9808,0.0915 0.9781,0.1162 0.9749,0.1409 0.971,0.1655 0.1767,-0.963 0.1613,-0.5349 0.2133,-0.525 0.2483,-0.518 0.2775,-0.5118 0.3035,-0.5058 0.3274,-0.5 0.3497,-0.4942 0.3709,-0.4881 0.3911,-0.4821 0.4106,-0.4758 0.4295,-0.4695 0.6155,0.1514 0.6134,0.1599 0.6111,0.1682 0.6087,0.1767 0.1372,0.6212 0.1177,0.6174 0.0977,0.6131 0.0771,0.6082 0.0558,0.6028 0.0335,0.5967 0.01,0.5898 -0.0156,0.582 -0.044,0.5727 -0.0778,0.5613 -0.1277,0.5439 -0.3285,0.9223 0.9237,0.3422 0.9147,0.3654 0.9052,0.3884 0.8951,0.4112 0.4199,-0.8844 0.2943,-0.4749 0.3418,-0.452 0.3739,-0.4361 0.4006,-0.4225 0.4241,-0.41 0.4456,-0.3982 0.4657,-0.3868 0.4846,-0.3756 0.5025,-0.3644 0.5198,-0.3533 0.5363,-0.3423 0.5554,0.3055 0.5511,0.3132 0.5467,0.3207 0.5423,0.3282 -0.0282,0.6356 -0.0462,0.6268 -0.0643,0.6174 -0.0829,0.6075 -0.1021,0.5966 -0.1221,0.5851 -0.143,0.5723 -0.1657,0.5581 -0.1907,0.5419 -0.2205,0.522 -0.2641,0.4923 -0.556,0.8059 0.8036,0.5695 0.789,0.5898 0.7738,0.6094 0.7582,0.6288 0.6345,-0.7456 0.4072,-0.3825 0.4472,-0.3481 0.474,-0.3245 0.4962,-0.3044 0.5158,-0.2863 0.5335,-0.2693 0.5499,-0.2531 0.5653,-0.2373 0.5798,-0.2219 0.5935,-0.2068 0.6066,-0.1918 0.4574,0.4388 0.4513,0.4451 0.4451,0.4513 0.4388,0.4574 -0.1918,0.6066 -0.2068,0.5935 -0.2219,0.5798 -0.2373,0.5653 -0.2531,0.5499 -0.2693,0.5335 -0.2863,0.5158 -0.3044,0.4962 -0.3245,0.474 -0.3481,0.4472 -0.3825,0.4072 -0.7456,0.6345 0.6288,0.7582 0.6094,0.7738 0.5898,0.789 0.5695,0.8036 0.8059,-0.556 0.4923,-0.2641 0.522,-0.2205 0.5419,-0.1907 0.5581,-0.1657 0.5723,-0.143 0.5851,-0.1221 0.5966,-0.1021 0.6075,-0.0829 0.6174,-0.0643 0.6268,-0.0462 0.6356,-0.0282 0.3282,0.5423 0.3207,0.5467 0.3132,0.5511 0.3055,0.5554 -0.3423,0.5363 -0.3533,0.5198 -0.3644,0.5025 -0.3756,0.4846 -0.3868,0.4657 -0.3982,0.4456 -0.41,0.4241 -0.4225,0.4006 -0.4361,0.3739 -0.452,0.3418 -0.4749,0.2943 -0.8844,0.4199 0.4112,0.8951 0.3884,0.9052 0.3654,0.9147 0.3422,0.9237 0.9223,-0.3285 0.5439,-0.1277 0.5613,-0.0778 0.5727,-0.044 0.582,-0.0156 0.5898,0.01 0.5967,0.0335 0.6028,0.0558 0.6082,0.0771 0.6131,0.0977 0.6174,0.1177 0.6212,0.1372 0.1767,0.6087 0.1682,0.6111 0.1599,0.6134 0.1514,0.6155 -0.4695,0.4295 -0.4758,0.4106 -0.4821,0.3911 -0.4881,0.3709 -0.4942,0.3497 -0.5,0.3274 -0.5058,0.3035 -0.5118,0.2775 -0.518,0.2483 -0.525,0.2133 -0.5349,0.1613 -0.963,0.1767 0.1655,0.971 0.1409,0.9749 0.1162,0.9781 0.0915,0.9808 z M 16.900498,5.314961 A 17.716535,17.716535 0 0 1 -3.847358,17.293741 L -9.31897,26.77085 A 28.346457,28.346457 0 0 0 27.843721,5.314961 z M -13.05314,11.97878 a 17.716535,17.716535 0 0 1 0,-23.95756 l -5.471611,-9.477109 a 28.346457,28.346457 0 0 0 0,42.911778 z m 9.205782,-29.272521 a 17.716535,17.716535 0 0 1 20.747856,11.97878 l 10.943223,0 A 28.346457,28.346457 0 0 0 -9.31897,-26.77085 z M 0,7.086614 A 7.086614,7.086614 0 0 0 0,-7.086614 7.086614,7.086614 0 0 0 0,7.086614"
         id="path2992"
         style="fill:#ddd;fill-opacity:1;stroke:#000;stroke-width:0.5" />
    </g>
  </g>
</svg>
