<?xml version="1.0" encoding="UTF-8" standalone="no"?>
<!-- Created with Inkscape (http://www.inkscape.org/) -->

<svg
   xmlns:dc="http://purl.org/dc/elements/1.1/"
   xmlns:cc="http://creativecommons.org/ns#"
   xmlns:rdf="http://www.w3.org/1999/02/22-rdf-syntax-ns#"
   xmlns:svg="http://www.w3.org/2000/svg"
   xmlns="http://www.w3.org/2000/svg"
   version="1.1"
   width="121.07"
   height="121.07"
   id="svg2">
  <defs
     id="defs4" />
  <metadata
     id="metadata7">
    <rdf:RDF>
      <cc:Work
         rdf:about="">
        <dc:format>image/svg+xml</dc:format>
        <dc:type
           rdf:resource="http://purl.org/dc/dcmitype/StillImage" />
        <dc:title></dc:title>
      </cc:Work>
    </rdf:RDF>
  </metadata>
  <g
     transform="translate(0,-931.29218)"
     id="layer1">
    <g
       transform="translate(60.5362,991.82598)"
       id="g3786"
       style="fill:#e5e5e5;fill-opacity:1">
      <path
         d="m 53.1649,-3.4068 1.4029,0.1259 1.4124,0.3123 1.4155,0.4425 1.415,0.5541 1.4111,0.6556 L 60.2362,0 60.2218,1.3164 58.8107,1.972 l -1.415,0.5541 -1.4155,0.4425 -1.4124,0.3123 -1.4029,0.1259 -0.1241,-0.008 -0.1471,1.8108 -0.209,1.8046 0.1233,0.0164 1.3514,0.3972 1.3243,0.5819 1.302,0.7101 1.2797,0.8195 1.2561,0.9183 -0.2427,1.2939 -0.2709,1.2883 -1.512,0.3677 -1.4958,0.2674 -1.4747,0.1578 -1.4462,0.0309 -1.4005,-0.1503 -0.1201,-0.032 -0.4976,1.7472 -0.557,1.7292 0.1177,0.0402 1.248,0.6531 1.1853,0.8291 1.1384,0.9505 1.0953,1.0534 1.0528,1.1457 -0.4905,1.2217 -0.517,1.2107 -1.5547,0.0657 -1.5192,-0.0296 -1.4772,-0.1329 -1.4244,-0.2519 -1.3443,-0.4206 -0.1115,-0.0549 -0.8289,1.6167 -0.8837,1.5873 0.1076,0.0623 1.0966,0.8841 1.0008,1.0444 0.9311,1.1543 0.8687,1.2468 0.8091,1.3291 -0.7194,1.1026 -0.7433,1.0865 -1.5376,-0.2388 -1.4843,-0.3255 -1.4228,-0.4185 -1.3479,-0.5249 -1.2364,-0.6749 -0.0988,-0.0755 -1.1283,1.4239 -1.1763,1.3844 0.0933,0.0821 0.9031,1.081 0.7778,1.2196 0.688,1.3138 0.6088,1.3923 0.5342,1.4615 -0.9207,0.9409 -0.9409,0.9207 -1.4615,-0.5342 -1.3923,-0.6088 -1.3138,-0.688 -1.2196,-0.7778 -1.081,-0.9031 -0.0821,-0.0933 -1.3844,1.1763 -1.4239,1.1283 0.0755,0.0988 0.6749,1.2364 0.5249,1.3479 0.4185,1.4228 0.3255,1.4843 0.2388,1.5376 -1.0865,0.7433 -1.1026,0.7194 -1.3291,-0.8091 -1.2468,-0.8687 -1.1543,-0.9311 -1.0444,-1.0008 -0.8841,-1.0966 -0.0623,-0.1076 -1.5873,0.8837 -1.6167,0.8289 0.0549,0.1115 0.4206,1.3443 0.2519,1.4244 0.1329,1.4772 0.0296,1.5192 -0.0657,1.5547 -1.2107,0.517 -1.2217,0.4905 -1.1457,-1.0528 -1.0534,-1.0953 -0.9505,-1.1384 -0.8291,-1.1853 -0.6531,-1.248 -0.0402,-0.1177 -1.7292,0.557 -1.7472,0.4976 0.032,0.1201 0.1503,1.4005 -0.0309,1.4462 -0.1578,1.4747 -0.2674,1.4958 -0.3677,1.512 -1.2883,0.2709 -1.2939,0.2427 L 9.5393,58.0654 8.7198,56.7857 8.0097,55.4837 7.4278,54.1594 7.0306,52.808 7.0142,52.6847 5.2096,52.8937 3.3988,53.0408 3.4068,53.1649 3.2809,54.5678 2.9686,55.9802 2.5261,57.3957 1.972,58.8107 1.3164,60.2218 0,60.2362 -1.3164,60.2218 -1.972,58.8107 l -0.5541,-1.415 -0.4425,-1.4155 -0.3123,-1.4124 -0.1259,-1.4029 0.008,-0.1241 -1.8108,-0.1471 -1.8046,-0.209 -0.0164,0.1233 -0.3972,1.3514 -0.5819,1.3243 -0.7101,1.302 -0.8195,1.2797 -0.9183,1.2561 -1.2939,-0.2427 -1.2883,-0.2709 -0.3677,-1.512 -0.2674,-1.4958 -0.1578,-1.4747 -0.0309,-1.4462 0.1503,-1.4005 0.032,-0.1201 -1.7472,-0.4976 -1.7292,-0.557 -0.0402,0.1177 -0.6531,1.248 -0.8291,1.1853 -0.9505,1.1384 -1.0534,1.0953 -1.1457,1.0528 -1.2217,-0.4905 -1.2107,-0.517 -0.0657,-1.5547 0.0296,-1.5192 0.1329,-1.4772 0.2519,-1.4244 0.4206,-1.3443 0.0549,-0.1115 -1.6167,-0.8289 -1.5873,-0.8837 -0.0623,0.1076 -0.8841,1.0966 -1.0444,1.0008 -1.1543,0.9311 -1.2468,0.8687 -1.3291,0.8091 -1.1026,-0.7194 -1.0865,-0.7433 0.2388,-1.5376 0.3255,-1.4843 0.4185,-1.4228 0.5249,-1.3479 0.6749,-1.2364 0.0755,-0.0988 -1.4239,-1.1283 -1.3844,-1.1763 -0.0821,0.0933 -1.081,0.9031 -1.2196,0.7778 -1.3138,0.688 -1.3923,0.6088 -1.4615,0.5342 -0.9409,-0.9207 -0.9207,-0.9409 0.5342,-1.4615 0.6088,-1.3923 0.688,-1.3138 0.7778,-1.2196 0.9031,-1.081 0.0933,-0.0821 -1.1763,-1.3844 -1.1283,-1.4239 -0.0988,0.0755 -1.2364,0.6749 -1.3479,0.5249 -1.4228,0.4185 -1.4843,0.3255 -1.5376,0.2388 -0.7433,-1.0865 -0.7194,-1.1026 0.8091,-1.3291 0.8687,-1.2468 0.9311,-1.1543 1.0008,-1.0444 1.0966,-0.8841 0.1076,-0.0623 -0.8837,-1.5873 -0.8289,-1.6167 -0.1115,0.0549 -1.3443,0.4206 -1.4244,0.2519 -1.4772,0.1329 -1.5192,0.0296 -1.5547,-0.0657 -0.517,-1.2107 -0.4905,-1.2217 1.0528,-1.1457 1.0953,-1.0534 1.1384,-0.9505 1.1853,-0.8291 1.248,-0.6531 0.1177,-0.0402 -0.557,-1.7292 -0.4976,-1.7472 -0.1201,0.032 -1.4005,0.1503 -1.4462,-0.0309 -1.4747,-0.1578 -1.4958,-0.2674 -1.512,-0.3677 -0.2709,-1.2883 -0.2427,-1.2939 1.2561,-0.9183 1.2797,-0.8195 1.302,-0.7101 1.3243,-0.5819 1.3514,-0.3972 0.1233,-0.0164 -0.209,-1.8046 -0.1471,-1.8108 -0.1241,0.008 L -54.5678,3.2809 -55.9802,2.9686 -57.3957,2.5261 -58.8107,1.972 -60.2218,1.3164 -60.2362,0 l 0.0144,-1.3164 1.4111,-0.6556 1.415,-0.5541 1.4155,-0.4425 1.4124,-0.3123 1.4029,-0.1259 0.1241,0.008 0.1471,-1.8108 0.209,-1.8046 -0.1233,-0.0164 -1.3514,-0.3972 -1.3243,-0.5819 -1.302,-0.7101 -1.2797,-0.8195 -1.2561,-0.9183 0.2427,-1.2939 0.2709,-1.2883 1.512,-0.3677 1.4958,-0.2674 1.4747,-0.1578 1.4462,-0.0309 1.4005,0.1503 0.1201,0.032 0.4976,-1.7472 0.557,-1.7292 -0.1177,-0.0402 -1.248,-0.6531 -1.1853,-0.8291 -1.1384,-0.9505 -1.0953,-1.0534 -1.0528,-1.1457 0.4905,-1.2217 0.517,-1.2107 1.5547,-0.0657 1.5192,0.0296 1.4772,0.1329 1.4244,0.2519 1.3443,0.4206 0.1115,0.0549 0.8289,-1.6167 0.8837,-1.5873 -0.1076,-0.0623 -1.0966,-0.8841 -1.0008,-1.0444 -0.9311,-1.1543 -0.8687,-1.2468 -0.8091,-1.3291 0.7194,-1.1026 0.7433,-1.0865 1.5376,0.2388 1.4843,0.3255 1.4228,0.4185 1.3479,0.5249 1.2364,0.6749 0.0988,0.0755 1.1283,-1.4239 1.1763,-1.3844 -0.0933,-0.0821 -0.9031,-1.081 -0.7778,-1.2196 -0.688,-1.3138 -0.6088,-1.3923 -0.5342,-1.4615 0.9207,-0.9409 0.9409,-0.9207 1.4615,0.5342 1.3923,0.6088 1.3138,0.688 1.2196,0.7778 1.081,0.9031 0.0821,0.0933 1.3844,-1.1763 1.4239,-1.1283 -0.0755,-0.0988 -0.6749,-1.2364 -0.5249,-1.3479 -0.4185,-1.4228 -0.3255,-1.4843 -0.2388,-1.5376 1.0865,-0.7433 1.1026,-0.7194 1.3291,0.8091 1.2468,0.8687 1.1543,0.9311 1.0444,1.0008 0.8841,1.0966 0.0623,0.1076 1.5873,-0.8837 1.6167,-0.8289 -0.0549,-0.1115 -0.4206,-1.3443 -0.2519,-1.4244 -0.1329,-1.4772 -0.0296,-1.5192 0.0657,-1.5547 1.2107,-0.517 1.2217,-0.4905 1.1457,1.0528 1.0534,1.0953 0.9505,1.1384 0.8291,1.1853 0.6531,1.248 0.0402,0.1177 1.7292,-0.557 1.7472,-0.4976 -0.032,-0.1201 -0.1503,-1.4005 0.0309,-1.4462 0.1578,-1.4747 0.2674,-1.4958 0.3677,-1.512 1.2883,-0.2709 1.2939,-0.2427 0.9183,1.2561 0.8195,1.2797 0.7101,1.302 0.5819,1.3243 0.3972,1.3514 0.0164,0.1233 1.8046,-0.209 1.8108,-0.1471 -0.008,-0.1241 0.1259,-1.4029 0.3123,-1.4124 0.4425,-1.4155 0.5541,-1.415 0.6556,-1.4111 1.3164,-0.0144 1.3164,0.0144 0.6556,1.4111 0.5541,1.415 0.4425,1.4155 0.3123,1.4124 0.1259,1.4029 -0.008,0.1241 1.8108,0.1471 1.8046,0.209 0.0164,-0.1233 0.3972,-1.3514 0.5819,-1.3243 0.7101,-1.302 0.8195,-1.2797 0.9183,-1.2561 1.2939,0.2427 1.2883,0.2709 0.3677,1.512 0.2674,1.4958 0.1578,1.4747 0.0309,1.4462 -0.1503,1.4005 -0.032,0.1201 1.7472,0.4976 1.7292,0.557 0.0402,-0.1177 0.6531,-1.248 0.8291,-1.1853 0.9505,-1.1384 1.0534,-1.0953 1.1457,-1.0528 1.2217,0.4905 1.2107,0.517 0.0657,1.5547 -0.0296,1.5192 -0.1329,1.4772 -0.2519,1.4244 -0.4206,1.3443 -0.0549,0.1115 1.6167,0.8289 1.5873,0.8837 0.0623,-0.1076 0.8841,-1.0966 1.0444,-1.0008 1.1543,-0.9311 1.2468,-0.8687 1.3291,-0.8091 1.1026,0.7194 1.0865,0.7433 -0.2388,1.5376 -0.3255,1.4843 -0.4185,1.4228 -0.5249,1.3479 -0.6749,1.2364 -0.0755,0.0988 1.4239,1.1283 1.3844,1.1763 0.0821,-0.0933 1.081,-0.9031 1.2196,-0.7778 1.3138,-0.688 1.3923,-0.6088 1.4615,-0.5342 0.9409,0.9207 0.9207,0.9409 -0.5342,1.4615 -0.6088,1.3923 -0.688,1.3138 -0.7778,1.2196 -0.9031,1.081 -0.0933,0.0821 1.1763,1.3844 1.1283,1.4239 0.0988,-0.0755 1.2364,-0.6749 1.3479,-0.5249 1.4228,-0.4185 1.4843,-0.3255 1.5376,-0.2388 0.7433,1.0865 0.7194,1.1026 -0.8091,1.3291 -0.8687,1.2468 -0.9311,1.1543 -1.0008,1.0444 -1.0966,0.8841 -0.1076,0.0623 0.8837,1.5873 0.8289,1.6167 0.1115,-0.0549 1.3443,-0.4206 1.4244,-0.2519 1.4772,-0.1329 1.5192,-0.0296 1.5547,0.0657 0.517,1.2107 0.4905,1.2217 -1.0528,1.1457 -1.0953,1.0534 -1.1384,0.9505 -1.1853,0.8291 -1.248,0.6531 -0.1177,0.0402 0.557,1.7292 0.4976,1.7472 0.1201,-0.032 1.4005,-0.1503 1.4462,0.0309 1.4747,0.1578 1.4958,0.2674 1.512,0.3677 0.2709,1.2883 0.2427,1.2939 -1.2561,0.9183 -1.2797,0.8195 -1.302,0.7101 -1.3243,0.5819 -1.3514,0.3972 -0.1233,0.0164 0.209,1.8046 0.1471,1.8108 z M 16.900498,5.314961 A 17.716535,17.716535 0 0 1 -3.847358,17.293741 L -16.490205,39.191794 A 42.519685,42.519685 0 0 0 42.186192,5.314961 z M -13.05314,11.97878 a 17.716535,17.716535 0 0 1 0,-23.95756 l -12.642847,-21.898054 a 42.519685,42.519685 0 0 0 0,67.753668 z m 9.205782,-29.272521 a 17.716535,17.716535 0 0 1 20.747856,11.97878 l 25.285694,0 A 42.519685,42.519685 0 0 0 -16.490205,-39.191794 z M 0,7.086614 A 7.086614,7.086614 0 0 0 0,-7.086614 7.086614,7.086614 0 0 0 0,7.086614"
         id="path3788"
         style="fill:#ddd;fill-opacity:1;stroke:#000;stroke-width:0.5" />
    </g>
  </g>
</svg>
