<?xml version="1.0" encoding="UTF-8" standalone="no"?>
<!-- Created with Inkscape (http://www.inkscape.org/) -->

<svg
   xmlns:dc="http://purl.org/dc/elements/1.1/"
   xmlns:cc="http://creativecommons.org/ns#"
   xmlns:rdf="http://www.w3.org/1999/02/22-rdf-syntax-ns#"
   xmlns:svg="http://www.w3.org/2000/svg"
   xmlns="http://www.w3.org/2000/svg"
   version="1.1"
   width="64.379997"
   height="64.379997"
   id="svg4179">
  <defs
     id="defs4181" />
  <metadata
     id="metadata4184">
    <rdf:RDF>
      <cc:Work
         rdf:about="">
        <dc:format>image/svg+xml</dc:format>
        <dc:type
           rdf:resource="http://purl.org/dc/dcmitype/StillImage" />
        <dc:title></dc:title>
      </cc:Work>
    </rdf:RDF>
  </metadata>
  <g
     transform="translate(0,-987.98218)"
     id="layer1" />
  <g
     transform="translate(32.1898,32.190217)"
     id="g4220"
     style="fill:#e5e5e5;fill-opacity:1">
    <path
       d="m 26.4668,-3.0057 0.4813,0.0066 0.4868,0.0584 0.4899,0.0939 0.4921,0.1238 0.4935,0.1508 0.4942,0.1757 0.4944,0.1995 0.4941,0.2222 0.4932,0.2441 0.4917,0.2654 0.49,0.2862 0.0163,0.5894 L 31.8898,0 31.8843,0.5897 31.868,1.1791 31.378,1.4653 30.8863,1.7307 30.3931,1.9748 29.899,2.197 29.4046,2.3965 28.9104,2.5722 28.4169,2.723 l -0.4921,0.1238 -0.4899,0.0939 -0.4868,0.0584 -0.4813,0.0066 -1.8221,-0.207 -0.1378,1.0234 -0.1803,1.0168 -0.2225,1.0083 -0.2643,0.9982 1.7626,0.5061 0.4421,0.1903 0.4273,0.2403 0.4168,0.2742 0.4072,0.3026 0.3983,0.3282 0.3893,0.3515 0.3805,0.3735 0.3714,0.3943 0.3622,0.4143 0.3528,0.4334 0.3431,0.4519 -0.2105,0.5508 -0.2206,0.5469 -0.2307,0.5427 -0.2407,0.5383 -0.5621,0.0769 -0.5559,0.057 -0.5491,0.0368 -0.5414,0.0162 -0.5331,-0.0049 -0.5239,-0.0267 -0.5137,-0.0496 -0.502,-0.0739 -0.4885,-0.1008 -0.4721,-0.1323 -0.4472,-0.1781 -1.6042,-0.8885 -0.5189,0.8928 -0.5557,0.8703 -0.5915,0.8464 -0.6261,0.8212 1.4347,1.142 0.3357,0.345 0.3028,0.3855 0.2801,0.4128 0.2604,0.4355 0.2424,0.4556 0.2252,0.4738 0.2085,0.4906 0.1923,0.5065 0.1761,0.5213 0.1601,0.5354 0.144,0.5488 -0.4052,0.4284 -0.4131,0.4208 -0.4208,0.4131 -0.4284,0.4052 -0.5488,-0.144 -0.5354,-0.1601 -0.5213,-0.1761 -0.5065,-0.1923 -0.4906,-0.2085 -0.4738,-0.2252 -0.4556,-0.2424 -0.4355,-0.2604 -0.4128,-0.2801 -0.3855,-0.3028 -0.345,-0.3357 -1.142,-1.4347 -0.8212,0.6261 -0.8464,0.5915 -0.8703,0.5557 -0.8928,0.5189 0.8885,1.6042 0.1781,0.4472 0.1323,0.4721 0.1008,0.4885 0.0739,0.502 0.0496,0.5137 0.0267,0.5239 0.0049,0.5331 -0.0162,0.5414 -0.0368,0.5491 -0.057,0.5559 -0.0769,0.5621 -0.5383,0.2407 -0.5427,0.2307 -0.5469,0.2206 L 11.106,29.8934 10.6541,29.5503 10.2207,29.1975 9.8064,28.8353 9.4121,28.4639 9.0386,28.0834 8.6871,27.6941 8.3589,27.2958 8.0563,26.8886 7.7821,26.4718 7.5418,26.0445 7.3515,25.6024 6.8454,23.8398 5.8472,24.1041 4.8389,24.3266 3.8221,24.5069 2.7987,24.6447 3.0057,26.4668 2.9991,26.9481 2.9407,27.4349 2.8468,27.9248 2.723,28.4169 2.5722,28.9104 2.3965,29.4046 2.197,29.899 1.9748,30.3931 1.7307,30.8863 1.4653,31.378 1.1791,31.868 0.5897,31.8843 0,31.8898 -0.5897,31.8843 -1.1791,31.868 -1.4653,31.378 -1.7307,30.8863 -1.9748,30.3931 -2.197,29.899 -2.3965,29.4046 -2.5722,28.9104 -2.723,28.4169 l -0.1238,-0.4921 -0.0939,-0.4899 -0.0584,-0.4868 -0.0066,-0.4813 0.207,-1.8221 -1.0234,-0.1378 -1.0168,-0.1803 -1.0083,-0.2225 -0.9982,-0.2643 -0.5061,1.7626 -0.1903,0.4421 -0.2403,0.4273 -0.2742,0.4168 -0.3026,0.4072 -0.3282,0.3983 -0.3515,0.3893 -0.3735,0.3805 -0.3943,0.3714 -0.4143,0.3622 -0.4334,0.3528 -0.4519,0.3431 -0.5508,-0.2105 -0.5469,-0.2206 -0.5427,-0.2307 -0.5383,-0.2407 -0.0769,-0.5621 -0.057,-0.5559 -0.0368,-0.5491 -0.0162,-0.5414 0.0049,-0.5331 0.0267,-0.5239 0.0496,-0.5137 0.0739,-0.502 0.1008,-0.4885 0.1323,-0.4721 0.1781,-0.4472 0.8885,-1.6042 -0.8928,-0.5189 -0.8703,-0.5557 -0.8464,-0.5915 -0.8212,-0.6261 -1.142,1.4347 -0.345,0.3357 -0.3855,0.3028 -0.4128,0.2801 -0.4355,0.2604 -0.4556,0.2424 -0.4738,0.2252 -0.4906,0.2085 -0.5065,0.1923 -0.5213,0.1761 -0.5354,0.1601 -0.5488,0.144 -0.4284,-0.4052 -0.4208,-0.4131 -0.4131,-0.4208 -0.4052,-0.4284 0.144,-0.5488 0.1601,-0.5354 0.1761,-0.5213 0.1923,-0.5065 0.2085,-0.4906 0.2252,-0.4738 0.2424,-0.4556 0.2604,-0.4355 0.2801,-0.4128 0.3028,-0.3855 0.3357,-0.345 1.4347,-1.142 -0.6261,-0.8212 -0.5915,-0.8464 -0.5557,-0.8703 -0.5189,-0.8928 -1.6042,0.8885 -0.4472,0.1781 -0.4721,0.1323 -0.4885,0.1008 -0.502,0.0739 -0.5137,0.0496 -0.5239,0.0267 -0.5331,0.0049 -0.5414,-0.0162 -0.5491,-0.0368 -0.5559,-0.057 -0.5621,-0.0769 -0.2407,-0.5383 -0.2307,-0.5427 -0.2206,-0.5469 -0.2105,-0.5508 0.3431,-0.4519 0.3528,-0.4334 0.3622,-0.4143 0.3714,-0.3943 0.3805,-0.3735 0.3893,-0.3515 0.3983,-0.3282 0.4072,-0.3026 0.4168,-0.2742 0.4273,-0.2403 0.4421,-0.1903 1.7626,-0.5061 -0.2643,-0.9982 -0.2225,-1.0083 -0.1803,-1.0168 -0.1378,-1.0234 -1.8221,0.207 L -26.9481,2.9991 -27.4349,2.9407 -27.9248,2.8468 -28.4169,2.723 -28.9104,2.5722 -29.4046,2.3965 -29.899,2.197 -30.3931,1.9748 -30.8863,1.7307 -31.378,1.4653 -31.868,1.1791 -31.8843,0.5897 -31.8898,0 l 0.0055,-0.5897 0.0163,-0.5894 0.49,-0.2862 0.4917,-0.2654 0.4932,-0.2441 0.4941,-0.2222 0.4944,-0.1995 0.4942,-0.1757 0.4935,-0.1508 0.4921,-0.1238 0.4899,-0.0939 0.4868,-0.0584 0.4813,-0.0066 1.8221,0.207 0.1378,-1.0234 0.1803,-1.0168 0.2225,-1.0083 0.2643,-0.9982 -1.7626,-0.5061 -0.4421,-0.1903 -0.4273,-0.2403 -0.4168,-0.2742 -0.4072,-0.3026 -0.3983,-0.3282 -0.3893,-0.3515 -0.3805,-0.3735 -0.3714,-0.3943 -0.3622,-0.4143 -0.3528,-0.4334 -0.3431,-0.4519 0.2105,-0.5508 0.2206,-0.5469 0.2307,-0.5427 0.2407,-0.5383 0.5621,-0.0769 0.5559,-0.057 0.5491,-0.0368 0.5414,-0.0162 0.5331,0.0049 0.5239,0.0267 0.5137,0.0496 0.502,0.0739 0.4885,0.1008 0.4721,0.1323 0.4472,0.1781 1.6042,0.8885 0.5189,-0.8928 0.5557,-0.8703 0.5915,-0.8464 0.6261,-0.8212 -1.4347,-1.142 -0.3357,-0.345 -0.3028,-0.3855 -0.2801,-0.4128 -0.2604,-0.4355 -0.2424,-0.4556 -0.2252,-0.4738 -0.2085,-0.4906 -0.1923,-0.5065 -0.1761,-0.5213 -0.1601,-0.5354 -0.144,-0.5488 0.4052,-0.4284 0.4131,-0.4208 0.4208,-0.4131 0.4284,-0.4052 0.5488,0.144 0.5354,0.1601 0.5213,0.1761 0.5065,0.1923 0.4906,0.2085 0.4738,0.2252 0.4556,0.2424 0.4355,0.2604 0.4128,0.2801 0.3855,0.3028 0.345,0.3357 1.142,1.4347 0.8212,-0.6261 0.8464,-0.5915 0.8703,-0.5557 0.8928,-0.5189 -0.8885,-1.6042 -0.1781,-0.4472 -0.1323,-0.4721 -0.1008,-0.4885 -0.0739,-0.502 -0.0496,-0.5137 -0.0267,-0.5239 -0.0049,-0.5331 0.0162,-0.5414 0.0368,-0.5491 0.057,-0.5559 0.0769,-0.5621 0.5383,-0.2407 0.5427,-0.2307 0.5469,-0.2206 0.5508,-0.2105 0.4519,0.3431 0.4334,0.3528 0.4143,0.3622 0.3943,0.3714 0.3735,0.3805 0.3515,0.3893 0.3282,0.3983 0.3026,0.4072 0.2742,0.4168 0.2403,0.4273 0.1903,0.4421 0.5061,1.7626 0.9982,-0.2643 1.0083,-0.2225 1.0168,-0.1803 1.0234,-0.1378 -0.207,-1.8221 0.0066,-0.4813 0.0584,-0.4868 0.0939,-0.4899 0.1238,-0.4921 0.1508,-0.4935 0.1757,-0.4942 0.1995,-0.4944 0.2222,-0.4941 0.2441,-0.4932 0.2654,-0.4917 0.2862,-0.49 0.5894,-0.0163 0.5897,-0.0055 0.5897,0.0055 0.5894,0.0163 0.2862,0.49 0.2654,0.4917 0.2441,0.4932 0.2222,0.4941 0.1995,0.4944 0.1757,0.4942 0.1508,0.4935 0.1238,0.4921 0.0939,0.4899 0.0584,0.4868 0.0066,0.4813 -0.207,1.8221 1.0234,0.1378 1.0168,0.1803 1.0083,0.2225 0.9982,0.2643 0.5061,-1.7626 0.1903,-0.4421 0.2403,-0.4273 0.2742,-0.4168 0.3026,-0.4072 0.3282,-0.3983 0.3515,-0.3893 0.3735,-0.3805 0.3943,-0.3714 0.4143,-0.3622 0.4334,-0.3528 0.4519,-0.3431 0.5508,0.2105 0.5469,0.2206 0.5427,0.2307 0.5383,0.2407 0.0769,0.5621 0.057,0.5559 0.0368,0.5491 0.0162,0.5414 -0.0049,0.5331 -0.0267,0.5239 -0.0496,0.5137 -0.0739,0.502 -0.1008,0.4885 -0.1323,0.4721 -0.1781,0.4472 -0.8885,1.6042 0.8928,0.5189 0.8703,0.5557 0.8464,0.5915 0.8212,0.6261 1.142,-1.4347 0.345,-0.3357 0.3855,-0.3028 0.4128,-0.2801 0.4355,-0.2604 0.4556,-0.2424 0.4738,-0.2252 0.4906,-0.2085 0.5065,-0.1923 0.5213,-0.1761 0.5354,-0.1601 0.5488,-0.144 0.4284,0.4052 0.4208,0.4131 0.4131,0.4208 0.4052,0.4284 -0.144,0.5488 -0.1601,0.5354 -0.1761,0.5213 -0.1923,0.5065 -0.2085,0.4906 -0.2252,0.4738 -0.2424,0.4556 -0.2604,0.4355 -0.2801,0.4128 -0.3028,0.3855 -0.3357,0.345 -1.4347,1.142 0.6261,0.8212 0.5915,0.8464 0.5557,0.8703 0.5189,0.8928 1.6042,-0.8885 0.4472,-0.1781 0.4721,-0.1323 0.4885,-0.1008 0.502,-0.0739 0.5137,-0.0496 0.5239,-0.0267 0.5331,-0.0049 0.5414,0.0162 0.5491,0.0368 0.5559,0.057 0.5621,0.0769 0.2407,0.5383 0.2307,0.5427 0.2206,0.5469 0.2105,0.5508 -0.3431,0.4519 -0.3528,0.4334 -0.3622,0.4143 -0.3714,0.3943 -0.3805,0.3735 -0.3893,0.3515 -0.3983,0.3282 -0.4072,0.3026 -0.4168,0.2742 -0.4273,0.2403 -0.4421,0.1903 -1.7626,0.5061 0.2643,0.9982 0.2225,1.0083 0.1803,1.0168 0.1378,1.0234 z M 0,7.086614 A 7.086614,7.086614 0 0 0 0,-7.086614 7.086614,7.086614 0 0 0 0,7.086614"
       id="path4222"
         style="fill:#ddd;fill-opacity:1;stroke:#000;stroke-width:0.5" />
  </g>
</svg>
